<svg width="24" height="25" viewBox="0 0 24 25" fill="none" xmlns="http://www.w3.org/2000/svg">
<path fill-rule="evenodd" clip-rule="evenodd" d="M4.6 5.30002C4.59999 5.18955 4.68954 5.1 4.8 5.1H11.5991C12.041 5.1 12.3991 4.74183 12.3991 4.3C12.3991 3.85817 12.041 3.5 11.5991 3.5H4.8C3.80582 3.5 2.99991 4.30599 3 5.30017L3.00137 19.7004C3.00147 20.6944 3.80732 21.5002 4.80137 21.5002H19.1991C20.1932 21.5002 20.9991 20.6943 20.9991 19.7002V12.9002C20.9991 12.4584 20.641 12.1002 20.1991 12.1002C19.7573 12.1002 19.3991 12.4584 19.3991 12.9002V19.7002C19.3991 19.8107 19.3096 19.9002 19.1991 19.9002H4.80137C4.69092 19.9002 4.60138 19.8107 4.60137 19.7002L4.6 5.30002ZM13.9992 4.3C13.9992 4.74183 14.3574 5.1 14.7992 5.1H18.2678L10.4335 12.9343C10.1211 13.2467 10.1211 13.7533 10.4335 14.0657C10.746 14.3781 11.2525 14.3781 11.5649 14.0657L19.3992 6.23137V9.7002C19.3992 10.142 19.7574 10.5002 20.1992 10.5002C20.641 10.5002 20.9992 10.142 20.9992 9.7002V4.3C20.9992 3.85817 20.641 3.5 20.1992 3.5H14.7992C14.3574 3.5 13.9992 3.85817 13.9992 4.3Z" fill="#256EF4"/>
</svg>
